<svg width="22" height="27" viewBox="0 0 22 27" fill="none" xmlns="http://www.w3.org/2000/svg">
<mask id="path-1-inside-1_7_749" fill="white">
<path fill-rule="evenodd" clip-rule="evenodd" d="M21.7652 15.3243L10.8826 0L0 15.3243H5.17072V27H16.5945V15.3243H21.7652Z"/>
</mask>
<path d="M10.8826 0L11.6979 -0.579005L10.8826 -1.7271L10.0673 -0.579005L10.8826 0ZM21.7652 15.3243V16.3243H23.7019L22.5805 14.7453L21.7652 15.3243ZM0 15.3243L-0.815324 14.7453L-1.93666 16.3243H0V15.3243ZM5.17072 15.3243H6.17072V14.3243H5.17072V15.3243ZM5.17072 27H4.17072V28H5.17072V27ZM16.5945 27V28H17.5945V27H16.5945ZM16.5945 15.3243V14.3243H15.5945V15.3243H16.5945ZM10.0673 0.579005L20.9499 15.9033L22.5805 14.7453L11.6979 -0.579005L10.0673 0.579005ZM0.815324 15.9033L11.6979 0.579005L10.0673 -0.579005L-0.815324 14.7453L0.815324 15.9033ZM5.17072 14.3243H0V16.3243H5.17072V14.3243ZM6.17072 27V15.3243H4.17072V27H6.17072ZM16.5945 26H5.17072V28H16.5945V26ZM15.5945 15.3243V27H17.5945V15.3243H15.5945ZM21.7652 14.3243H16.5945V16.3243H21.7652V14.3243Z" fill="#F5F9F1" mask="url(#path-1-inside-1_7_749)"/>
</svg>
