<svg width="26" height="22" viewBox="0 0 26 22" fill="none" xmlns="http://www.w3.org/2000/svg">
<path d="M24.7071 8.76874L24.673 8.68884L21.3722 0.789686C21.305 0.634866 21.1861 0.503532 21.0325 0.414528C20.8788 0.327036 20.6995 0.284896 20.5189 0.2938C20.3382 0.302704 20.1649 0.362222 20.0223 0.464317C19.8813 0.569344 19.779 0.711659 19.7293 0.871896L17.5006 7.12453H8.4756L6.24683 0.871896C6.19849 0.710787 6.09598 0.567758 5.95387 0.463159C5.81128 0.361064 5.63796 0.301546 5.4573 0.292642C5.27665 0.283738 5.09737 0.325877 4.94366 0.41337C4.7904 0.502734 4.67159 0.633953 4.60398 0.788527L1.29681 8.68421L1.26398 8.76411C0.788803 9.90255 0.730151 11.1518 1.09686 12.3235C1.46357 13.4952 2.23577 14.5258 3.29702 15.2599L3.30839 15.268L3.33869 15.2877L8.367 18.7405L10.8546 20.4669L12.37 21.516C12.5472 21.6394 12.7636 21.7062 12.9862 21.7062C13.2087 21.7062 13.4252 21.6394 13.6024 21.516L15.1177 20.4669L17.6054 18.7405L22.664 15.2668L22.6766 15.2576C23.7355 14.5233 24.5059 13.4938 24.872 12.3237C25.2382 11.1536 25.1803 9.9061 24.7071 8.76874Z" fill="#E24329"/>
<path d="M24.7071 8.76874L24.673 8.68884C23.0647 8.99157 21.549 9.61627 20.2344 10.5183L12.9849 15.5447C15.4536 17.2573 17.6028 18.7452 17.6028 18.7452L22.6615 15.2715L22.6741 15.2622C23.7345 14.528 24.5061 13.4978 24.8727 12.3267C25.2394 11.1556 25.1813 9.90694 24.7071 8.76874Z" fill="#FC6D26"/>
<path d="M8.367 18.7452L10.8546 20.4716L12.37 21.5206C12.5472 21.644 12.7636 21.7108 12.9862 21.7108C13.2087 21.7108 13.4252 21.644 13.6024 21.5206L15.1177 20.4716L17.6054 18.7452C17.6054 18.7452 15.4536 17.2526 12.9849 15.5447C10.5162 17.2526 8.367 18.7452 8.367 18.7452Z" fill="#FCA326"/>
<path d="M5.73415 10.5183C4.42062 9.61441 2.90532 8.98808 1.29681 8.68421L1.26398 8.76411C0.788803 9.90255 0.730151 11.1518 1.09686 12.3235C1.46357 13.4952 2.23577 14.5258 3.29702 15.2599L3.30839 15.268L3.33869 15.2877L8.367 18.7405C8.367 18.7405 10.5137 17.2526 12.9849 15.5401L5.73415 10.5183Z" fill="#FC6D26"/>
</svg>
