<svg width="23" height="24" viewBox="0 0 23 24" fill="none" xmlns="http://www.w3.org/2000/svg">
<path d="M9.65999 1.51971C8.90308 1.51971 8.27999 2.1428 8.27999 2.89971V3.81971H4.67097C4.64514 3.81539 4.61899 3.81329 4.5928 3.81342C4.57052 3.8139 4.5483 3.816 4.52632 3.81971H3.67999C3.61904 3.81884 3.55852 3.83011 3.50195 3.85284C3.44539 3.87557 3.3939 3.90931 3.35049 3.95211C3.30708 3.99491 3.27261 4.04591 3.24908 4.10215C3.22556 4.15839 3.21344 4.21875 3.21344 4.27971C3.21344 4.34067 3.22556 4.40102 3.24908 4.45726C3.27261 4.5135 3.30708 4.5645 3.35049 4.6073C3.3939 4.6501 3.44539 4.68385 3.50195 4.70658C3.55852 4.72931 3.61904 4.74057 3.67999 4.73971H4.13999V21.2997C4.13999 22.0566 4.76308 22.6797 5.51999 22.6797H17.48C18.2369 22.6797 18.86 22.0566 18.86 21.2997V4.73971H19.32C19.3809 4.74057 19.4415 4.72931 19.498 4.70658C19.5546 4.68385 19.6061 4.6501 19.6495 4.6073C19.6929 4.5645 19.7274 4.5135 19.7509 4.45726C19.7744 4.40102 19.7865 4.34067 19.7865 4.27971C19.7865 4.21875 19.7744 4.15839 19.7509 4.10215C19.7274 4.04591 19.6929 3.99491 19.6495 3.95211C19.6061 3.90931 19.5546 3.87557 19.498 3.85284C19.4415 3.83011 19.3809 3.81884 19.32 3.81971H18.4773C18.4276 3.8115 18.3769 3.8115 18.3272 3.81971H14.72V2.89971C14.72 2.1428 14.0969 1.51971 13.34 1.51971H9.65999ZM9.65999 2.43971H13.34C13.5951 2.43971 13.8 2.64462 13.8 2.89971V3.81971H9.19999V2.89971C9.19999 2.64462 9.4049 2.43971 9.65999 2.43971ZM5.05999 4.73971H8.66273C8.7124 4.74792 8.76309 4.74792 8.81276 4.73971H14.1827C14.2324 4.74792 14.2831 4.74792 14.3328 4.73971H17.94V21.2997C17.94 21.5548 17.7351 21.7597 17.48 21.7597H5.51999C5.2649 21.7597 5.05999 21.5548 5.05999 21.2997V4.73971ZM8.7328 7.03342C8.61096 7.03532 8.49485 7.08549 8.40996 7.17291C8.32507 7.26033 8.27832 7.37786 8.27999 7.49971V18.9997C8.27913 19.0607 8.29039 19.1212 8.31312 19.1777C8.33585 19.2343 8.3696 19.2858 8.4124 19.3292C8.4552 19.3726 8.5062 19.4071 8.56244 19.4306C8.61868 19.4541 8.67903 19.4663 8.73999 19.4663C8.80095 19.4663 8.86131 19.4541 8.91755 19.4306C8.97378 19.4071 9.02478 19.3726 9.06758 19.3292C9.11039 19.2858 9.14413 19.2343 9.16686 19.1777C9.18959 19.1212 9.20085 19.0607 9.19999 18.9997V7.49971C9.20083 7.43816 9.18932 7.37708 9.16613 7.32006C9.14294 7.26305 9.10854 7.21127 9.06498 7.16779C9.02141 7.12431 8.96957 7.09002 8.91251 7.06694C8.85545 7.04385 8.79435 7.03246 8.7328 7.03342ZM11.4928 7.03342C11.371 7.03532 11.2549 7.08549 11.17 7.17291C11.0851 7.26033 11.0383 7.37786 11.04 7.49971V18.9997C11.0391 19.0607 11.0504 19.1212 11.0731 19.1777C11.0959 19.2343 11.1296 19.2858 11.1724 19.3292C11.2152 19.3726 11.2662 19.4071 11.3224 19.4306C11.3787 19.4541 11.439 19.4663 11.5 19.4663C11.561 19.4663 11.6213 19.4541 11.6775 19.4306C11.7338 19.4071 11.7848 19.3726 11.8276 19.3292C11.8704 19.2858 11.9041 19.2343 11.9269 19.1777C11.9496 19.1212 11.9609 19.0607 11.96 18.9997V7.49971C11.9608 7.43816 11.9493 7.37708 11.9261 7.32006C11.9029 7.26305 11.8685 7.21127 11.825 7.16779C11.7814 7.12431 11.7296 7.09002 11.6725 7.06694C11.6155 7.04385 11.5543 7.03246 11.4928 7.03342ZM14.2528 7.03342C14.131 7.03532 14.0149 7.08549 13.93 7.17291C13.8451 7.26033 13.7983 7.37786 13.8 7.49971V18.9997C13.7991 19.0607 13.8104 19.1212 13.8331 19.1777C13.8559 19.2343 13.8896 19.2858 13.9324 19.3292C13.9752 19.3726 14.0262 19.4071 14.0824 19.4306C14.1387 19.4541 14.199 19.4663 14.26 19.4663C14.321 19.4663 14.3813 19.4541 14.4375 19.4306C14.4938 19.4071 14.5448 19.3726 14.5876 19.3292C14.6304 19.2858 14.6641 19.2343 14.6869 19.1777C14.7096 19.1212 14.7209 19.0607 14.72 18.9997V7.49971C14.7208 7.43816 14.7093 7.37708 14.6861 7.32006C14.6629 7.26305 14.6285 7.21127 14.585 7.16779C14.5414 7.12431 14.4896 7.09002 14.4325 7.06694C14.3755 7.04385 14.3143 7.03246 14.2528 7.03342Z" fill="#F5F9F1"/>
</svg>
